<svg width="65" height="64" viewBox="0 0 65 64" fill="none" xmlns="http://www.w3.org/2000/svg">
<rect x="1.66699" y="1" width="62" height="62" rx="31" fill="#FFD12E" fill-opacity="0.2"/>
<rect x="1.66699" y="1" width="62" height="62" rx="31" stroke="#DBB11C" stroke-width="2"/>
<path d="M43.667 25.5H38.667C38.667 23.9087 38.0349 22.3826 36.9096 21.2574C35.7844 20.1321 34.2583 19.5 32.667 19.5C31.0757 19.5 29.5496 20.1321 28.4244 21.2574C27.2991 22.3826 26.667 23.9087 26.667 25.5H21.667C21.1366 25.5 20.6279 25.7107 20.2528 26.0858C19.8777 26.4609 19.667 26.9696 19.667 27.5V42.5C19.667 43.0304 19.8777 43.5391 20.2528 43.9142C20.6279 44.2893 21.1366 44.5 21.667 44.5H43.667C44.1974 44.5 44.7061 44.2893 45.0812 43.9142C45.4563 43.5391 45.667 43.0304 45.667 42.5V27.5C45.667 26.9696 45.4563 26.4609 45.0812 26.0858C44.7061 25.7107 44.1974 25.5 43.667 25.5ZM32.667 21.5C33.7279 21.5 34.7453 21.9214 35.4954 22.6716C36.2456 23.4217 36.667 24.4391 36.667 25.5H28.667C28.667 24.4391 29.0884 23.4217 29.8386 22.6716C30.5887 21.9214 31.6061 21.5 32.667 21.5ZM43.667 42.5H21.667V27.5H26.667V29.5C26.667 29.7652 26.7723 30.0196 26.9599 30.2071C27.1474 30.3946 27.4018 30.5 27.667 30.5C27.9322 30.5 28.1866 30.3946 28.3741 30.2071C28.5616 30.0196 28.667 29.7652 28.667 29.5V27.5H36.667V29.5C36.667 29.7652 36.7723 30.0196 36.9599 30.2071C37.1474 30.3946 37.4018 30.5 37.667 30.5C37.9322 30.5 38.1866 30.3946 38.3741 30.2071C38.5616 30.0196 38.667 29.7652 38.667 29.5V27.5H43.667V42.5Z" fill="#DBB11C"/>
</svg>
