<svg width="44" height="48" viewBox="0 0 44 48" fill="none" xmlns="http://www.w3.org/2000/svg">
<path d="M41.8479 11.2679L23.5295 1.24482C23.0401 0.974377 22.49 0.83252 21.9308 0.83252C21.3716 0.83252 20.8216 0.974377 20.3321 1.24482L2.01366 11.2721C1.49052 11.5583 1.05383 11.9798 0.749174 12.4924C0.444523 13.005 0.283092 13.5901 0.281738 14.1864V34.0952C0.283092 34.6915 0.444523 35.2765 0.749174 35.7892C1.05383 36.3018 1.49052 36.7233 2.01366 37.0095L20.3321 47.0368C20.8216 47.3072 21.3716 47.4491 21.9308 47.4491C22.49 47.4491 23.0401 47.3072 23.5295 47.0368L41.8479 37.0095C42.3711 36.7233 42.8078 36.3018 43.1124 35.7892C43.4171 35.2765 43.5785 34.6915 43.5799 34.0952V14.1885C43.5796 13.5911 43.4187 13.0047 43.114 12.4909C42.8093 11.9771 42.372 11.5547 41.8479 11.2679ZM21.9308 4.15912L38.6568 13.3183L32.4577 16.7093L15.7317 7.55011L21.9308 4.15912ZM21.9308 22.4776L5.20482 13.3183L12.2637 9.45273L28.9896 18.6119L21.9308 22.4776ZM40.2492 34.1035L23.5961 43.219V25.3565L30.2574 21.7115V29.1388C30.2574 29.5805 30.4328 30.0041 30.7451 30.3164C31.0574 30.6287 31.481 30.8041 31.9227 30.8041C32.3643 30.8041 32.7879 30.6287 33.1002 30.3164C33.4125 30.0041 33.588 29.5805 33.588 29.1388V19.888L40.2492 16.243V34.0952V34.1035Z" fill="#373737"/>
</svg>
