<svg width="65" height="64" viewBox="0 0 65 64" fill="none" xmlns="http://www.w3.org/2000/svg">
<rect x="1.33301" y="1" width="62" height="62" rx="31" fill="#FFD12E" fill-opacity="0.2"/>
<rect x="1.33301" y="1" width="62" height="62" rx="31" stroke="#DBB11C" stroke-width="2"/>
<path d="M46.9314 33.7812C46.8264 33.86 46.7068 33.9173 46.5796 33.9499C46.4524 33.9825 46.32 33.9897 46.19 33.9712C46.06 33.9526 45.9349 33.9086 45.8219 33.8417C45.7089 33.7748 45.6102 33.6863 45.5314 33.5812C44.9287 32.771 44.1442 32.1137 43.241 31.6621C42.3378 31.2105 41.3412 30.9773 40.3314 30.9812C40.1348 30.9812 39.9425 30.9232 39.7787 30.8145C39.6148 30.7058 39.4866 30.5511 39.4102 30.37C39.3583 30.2469 39.3315 30.1148 39.3315 29.9812C39.3315 29.8477 39.3583 29.7155 39.4102 29.5925C39.4866 29.4113 39.6148 29.2567 39.7787 29.148C39.9425 29.0392 40.1348 28.9812 40.3314 28.9812C40.8925 28.9812 41.4424 28.8238 41.9185 28.5269C42.3946 28.23 42.7779 27.8056 43.0249 27.3018C43.2719 26.798 43.3726 26.235 43.3157 25.6768C43.2588 25.1186 43.0464 24.5876 42.7028 24.144C42.3592 23.7004 41.8981 23.3621 41.3718 23.1675C40.8456 22.9729 40.2753 22.9297 39.7257 23.043C39.1762 23.1562 38.6694 23.4213 38.263 23.8081C37.8565 24.1949 37.5667 24.6879 37.4264 25.2312C37.3936 25.3584 37.336 25.4779 37.257 25.5829C37.178 25.6879 37.0791 25.7763 36.9659 25.843C36.8527 25.9097 36.7275 25.9535 36.5974 25.9719C36.4673 25.9903 36.3349 25.9828 36.2077 25.95C36.0805 25.9171 35.961 25.8596 35.856 25.7806C35.751 25.7015 35.6626 25.6026 35.5959 25.4895C35.5292 25.3763 35.4854 25.2511 35.467 25.121C35.4487 24.9909 35.4561 24.8584 35.4889 24.7312C35.6836 23.9779 36.0515 23.2803 36.5632 22.6942C37.0749 22.108 37.7163 21.6493 38.4365 21.3547C39.1567 21.06 39.9356 20.9375 40.7115 20.9969C41.4873 21.0563 42.2386 21.2959 42.9055 21.6967C43.5725 22.0976 44.1366 22.6485 44.5532 23.3057C44.9697 23.963 45.2271 24.7084 45.3048 25.4826C45.3826 26.2568 45.2786 27.0385 45.0011 27.7654C44.7236 28.4924 44.2803 29.1445 43.7064 29.67C45.0662 30.2587 46.2483 31.193 47.1352 32.38C47.214 32.4853 47.2712 32.6051 47.3036 32.7326C47.336 32.8601 47.343 32.9927 47.324 33.1229C47.3051 33.253 47.2607 33.3782 47.1933 33.4912C47.1259 33.6041 47.037 33.7027 46.9314 33.7812ZM40.1964 41.4812C40.2688 41.595 40.3174 41.7223 40.3393 41.8554C40.3611 41.9885 40.3559 42.1246 40.3238 42.2556C40.2917 42.3866 40.2335 42.5098 40.1525 42.6177C40.0716 42.7256 39.9697 42.816 39.853 42.8835C39.7362 42.951 39.607 42.9941 39.4731 43.0104C39.3392 43.0267 39.2034 43.0157 39.0739 42.9781C38.9444 42.9405 38.8238 42.8771 38.7194 42.7917C38.615 42.7064 38.5289 42.6007 38.4664 42.4812C37.8365 41.4146 36.9393 40.5306 35.8635 39.9165C34.7876 39.3024 33.5702 38.9794 32.3314 38.9794C31.0926 38.9794 29.8753 39.3024 28.7994 39.9165C27.7235 40.5306 26.8264 41.4146 26.1964 42.4812C26.1339 42.6007 26.0479 42.7064 25.9435 42.7917C25.8391 42.8771 25.7185 42.9405 25.589 42.9781C25.4594 43.0157 25.3237 43.0267 25.1898 43.0104C25.0559 42.9941 24.9267 42.951 24.8099 42.8835C24.6931 42.816 24.5912 42.7256 24.5103 42.6177C24.4294 42.5098 24.3712 42.3866 24.3391 42.2556C24.307 42.1246 24.3017 41.9885 24.3236 41.8554C24.3455 41.7223 24.3941 41.595 24.4664 41.4812C25.4359 39.8154 26.9142 38.5046 28.6839 37.7412C27.6881 36.9788 26.9562 35.9234 26.5912 34.7235C26.2261 33.5236 26.2463 32.2395 26.6488 31.0516C27.0513 29.8637 27.816 28.8319 28.8353 28.1011C29.8546 27.3702 31.0772 26.9772 32.3314 26.9772C33.5856 26.9772 34.8083 27.3702 35.8276 28.1011C36.8469 28.8319 37.6115 29.8637 38.014 31.0516C38.4166 32.2395 38.4367 33.5236 38.0717 34.7235C37.7066 35.9234 36.9748 36.9788 35.9789 37.7412C37.7487 38.5046 39.2269 39.8154 40.1964 41.4812ZM32.3314 36.9812C33.1226 36.9812 33.8959 36.7466 34.5537 36.3071C35.2115 35.8676 35.7242 35.2429 36.027 34.512C36.3297 33.781 36.4089 32.9768 36.2546 32.2009C36.1002 31.4249 35.7193 30.7122 35.1599 30.1528C34.6005 29.5934 33.8877 29.2124 33.1118 29.0581C32.3359 28.9037 31.5316 28.983 30.8007 29.2857C30.0698 29.5885 29.4451 30.1011 29.0056 30.7589C28.566 31.4167 28.3314 32.1901 28.3314 32.9812C28.3314 34.0421 28.7529 35.0595 29.503 35.8096C30.2532 36.5598 31.2706 36.9812 32.3314 36.9812ZM25.3314 29.9812C25.3314 29.716 25.2261 29.4617 25.0385 29.2741C24.851 29.0866 24.5967 28.9812 24.3314 28.9812C23.7703 28.9812 23.2205 28.8238 22.7444 28.5269C22.2683 28.23 21.885 27.8056 21.638 27.3018C21.391 26.798 21.2902 26.235 21.3472 25.6768C21.4041 25.1186 21.6165 24.5876 21.9601 24.144C22.3037 23.7004 22.7648 23.3621 23.2911 23.1675C23.8173 22.9729 24.3876 22.9297 24.9371 23.043C25.4867 23.1562 25.9935 23.4213 26.3999 23.8081C26.8063 24.1949 27.0962 24.6879 27.2364 25.2312C27.3027 25.4881 27.4684 25.7082 27.697 25.843C27.9255 25.9778 28.1983 26.0163 28.4552 25.95C28.7121 25.8837 28.9322 25.718 29.067 25.4895C29.2018 25.2609 29.2402 24.9881 29.1739 24.7312C28.9792 23.9779 28.6114 23.2803 28.0997 22.6942C27.588 22.108 26.9465 21.6493 26.2264 21.3547C25.5062 21.06 24.7272 20.9375 23.9514 20.9969C23.1755 21.0563 22.4243 21.2959 21.7573 21.6967C21.0904 22.0976 20.5262 22.6485 20.1097 23.3057C19.6932 23.963 19.4358 24.7084 19.358 25.4826C19.2803 26.2568 19.3842 27.0385 19.6617 27.7654C19.9392 28.4924 20.3826 29.1445 20.9564 29.67C19.598 30.2593 18.4173 31.1935 17.5314 32.38C17.3721 32.5921 17.3037 32.8589 17.341 33.1216C17.3784 33.3842 17.5186 33.6213 17.7308 33.7806C17.943 33.9399 18.2097 34.0084 18.4724 33.971C18.7351 33.9336 18.9721 33.7934 19.1314 33.5812C19.7342 32.771 20.5187 32.1137 21.4219 31.6621C22.3251 31.2105 23.3217 30.9773 24.3314 30.9812C24.5967 30.9812 24.851 30.8759 25.0385 30.6883C25.2261 30.5008 25.3314 30.2464 25.3314 29.9812Z" fill="#DBB11C"/>
</svg>
