<svg width="36" height="40" viewBox="0 0 36 40" fill="none" xmlns="http://www.w3.org/2000/svg">
<g clip-path="url(#clip0_79_4632)">
<path d="M17.8454 18.7672C18.5625 18.7672 19.1438 18.1846 19.1438 17.4658C19.1438 16.747 18.5625 16.1643 17.8454 16.1643C17.1282 16.1643 16.5469 16.747 16.5469 17.4658C16.5469 18.1846 17.1282 18.7672 17.8454 18.7672Z" fill="white"/>
<path d="M1.29848 19.188C2.0156 19.188 2.59695 18.6053 2.59695 17.8866C2.59695 17.1678 2.0156 16.5851 1.29848 16.5851C0.581348 16.5851 0 17.1678 0 17.8866C0 18.6053 0.581348 19.188 1.29848 19.188Z" fill="white"/>
<path d="M34.3922 19.188C35.1094 19.188 35.6907 18.6053 35.6907 17.8866C35.6907 17.1678 35.1094 16.5851 34.3922 16.5851C33.6751 16.5851 33.0938 17.1678 33.0938 17.8866C33.0938 18.6053 33.6751 19.188 34.3922 19.188Z" fill="white"/>
<path d="M17.8454 2.60294C18.5625 2.60294 19.1438 2.02025 19.1438 1.30147C19.1438 0.582687 18.5625 0 17.8454 0C17.1282 0 16.5469 0.582687 16.5469 1.30147C16.5469 2.02025 17.1282 2.60294 17.8454 2.60294Z" fill="white"/>
<path d="M29.5602 7.44644C30.2773 7.44644 30.8587 6.86376 30.8587 6.14497C30.8587 5.42619 30.2773 4.84351 29.5602 4.84351C28.8431 4.84351 28.2617 5.42619 28.2617 6.14497C28.2617 6.86376 28.8431 7.44644 29.5602 7.44644Z" fill="white"/>
<path d="M29.5602 30.9297C30.2773 30.9297 30.8587 30.347 30.8587 29.6282C30.8587 28.9095 30.2773 28.3268 29.5602 28.3268C28.8431 28.3268 28.2617 28.9095 28.2617 29.6282C28.2617 30.347 28.8431 30.9297 29.5602 30.9297Z" fill="white"/>
<path d="M6.04457 30.9297C6.7617 30.9297 7.34305 30.347 7.34305 29.6282C7.34305 28.9095 6.7617 28.3268 6.04457 28.3268C5.32744 28.3268 4.74609 28.9095 4.74609 29.6282C4.74609 30.347 5.32744 30.9297 6.04457 30.9297Z" fill="white"/>
<path d="M6.13051 7.44644C6.84764 7.44644 7.42898 6.86376 7.42898 6.14497C7.42898 5.42619 6.84764 4.84351 6.13051 4.84351C5.41338 4.84351 4.83203 5.42619 4.83203 6.14497C4.83203 6.86376 5.41338 7.44644 6.13051 7.44644Z" fill="white"/>
<path d="M18.6122 3.78845H17.0801V16.5045H18.6122V3.78845Z" fill="white"/>
<path d="M12.3296 17.1187H3.75586V18.6543H12.3296V17.1187Z" fill="white"/>
<path d="M32.23 17.1187H23.3613V18.6543H32.23V17.1187Z" fill="white"/>
<path d="M8.40564 7.33832L7.32227 8.42419L13.4043 14.5203L14.4877 13.4344L8.40564 7.33832Z" fill="white"/>
<path d="M22.2865 21.2525L21.2031 22.3384L27.4049 28.5545L28.4883 27.4686L22.2865 21.2525Z" fill="white"/>
<path d="M27.2852 7.33812L21.2031 13.4342L22.2865 14.5201L28.3686 8.42399L27.2852 7.33812Z" fill="white"/>
<path d="M13.4043 21.253L7.32227 27.3491L8.40564 28.435L14.4877 22.3389L13.4043 21.253Z" fill="white"/>
<path d="M17.8458 1.30151C8.70742 1.30151 1.29883 8.72718 1.29883 17.8866C1.29883 27.046 8.70742 34.4717 17.8458 34.4717C26.9841 34.4717 34.3927 27.046 34.3927 17.8866C34.3927 8.72718 26.9841 1.30151 17.8458 1.30151ZM17.8458 31.0165C10.6111 31.0165 4.74611 25.138 4.74611 17.8866C4.74611 10.6352 10.6111 4.75674 17.8458 4.75674C25.0805 4.75674 30.9455 10.6352 30.9455 17.8866C30.9455 25.138 25.0805 31.0165 17.8458 31.0165Z" fill="white"/>
<path d="M29.9113 36.5448H5.78028C4.82834 36.5448 4.05664 37.3183 4.05664 38.2724C4.05664 39.2265 4.82834 40 5.78028 40H29.9113C30.8632 40 31.6349 39.2265 31.6349 38.2724C31.6349 37.3183 30.8632 36.5448 29.9113 36.5448Z" fill="#FFD527"/>
<path d="M23.3614 15.5969V20.1762L20.1301 23.4149H19.5694V36.5448H16.1221V23.4149H15.5613L12.3301 20.1762V15.5969L15.5414 12.3782V17.4773C15.5414 18.7527 16.5733 19.7869 17.8457 19.7869C19.1182 19.7869 20.15 18.7527 20.15 17.4773V12.3782L23.3614 15.5969Z" fill="#FFD527"/>
</g>
<defs>
<clipPath id="clip0_79_4632">
<rect width="35.6909" height="40" fill="white"/>
</clipPath>
</defs>
</svg>
