<svg width="29" height="32" viewBox="0 0 29 32" fill="none" xmlns="http://www.w3.org/2000/svg">
<g clip-path="url(#clip0_1718_198)">
<path d="M14.2763 15.0138C14.85 15.0138 15.3151 14.5477 15.3151 13.9726C15.3151 13.3976 14.85 12.9315 14.2763 12.9315C13.7026 12.9315 13.2375 13.3976 13.2375 13.9726C13.2375 14.5477 13.7026 15.0138 14.2763 15.0138Z" fill="#373737"/>
<path d="M1.03878 15.3504C1.61248 15.3504 2.07756 14.8843 2.07756 14.3092C2.07756 13.7342 1.61248 13.2681 1.03878 13.2681C0.465078 13.2681 0 13.7342 0 14.3092C0 14.8843 0.465078 15.3504 1.03878 15.3504Z" fill="#373737"/>
<path d="M27.5139 15.3504C28.0876 15.3504 28.5527 14.8843 28.5527 14.3092C28.5527 13.7342 28.0876 13.2681 27.5139 13.2681C26.9402 13.2681 26.4751 13.7342 26.4751 14.3092C26.4751 14.8843 26.9402 15.3504 27.5139 15.3504Z" fill="#373737"/>
<path d="M14.2763 2.08235C14.85 2.08235 15.3151 1.6162 15.3151 1.04117C15.3151 0.46615 14.85 0 14.2763 0C13.7026 0 13.2375 0.46615 13.2375 1.04117C13.2375 1.6162 13.7026 2.08235 14.2763 2.08235Z" fill="#373737"/>
<path d="M23.648 5.95711C24.2217 5.95711 24.6868 5.49096 24.6868 4.91593C24.6868 4.34091 24.2217 3.87476 23.648 3.87476C23.0743 3.87476 22.6093 4.34091 22.6093 4.91593C22.6093 5.49096 23.0743 5.95711 23.648 5.95711Z" fill="#373737"/>
<path d="M23.648 24.7437C24.2217 24.7437 24.6868 24.2776 24.6868 23.7026C24.6868 23.1275 24.2217 22.6614 23.648 22.6614C23.0743 22.6614 22.6093 23.1275 22.6093 23.7026C22.6093 24.2776 23.0743 24.7437 23.648 24.7437Z" fill="#373737"/>
<path d="M4.83541 24.7437C5.40911 24.7437 5.87419 24.2776 5.87419 23.7026C5.87419 23.1275 5.40911 22.6614 4.83541 22.6614C4.26171 22.6614 3.79663 23.1275 3.79663 23.7026C3.79663 24.2776 4.26171 24.7437 4.83541 24.7437Z" fill="#373737"/>
<path d="M4.90463 5.95711C5.47833 5.95711 5.94341 5.49096 5.94341 4.91593C5.94341 4.34091 5.47833 3.87476 4.90463 3.87476C4.33092 3.87476 3.86584 4.34091 3.86584 4.91593C3.86584 5.49096 4.33092 5.95711 4.90463 5.95711Z" fill="#373737"/>
<path d="M14.8892 3.03076H13.6635V13.2036H14.8892V3.03076Z" fill="#373737"/>
<path d="M9.86378 13.6949H3.00476V14.9235H9.86378V13.6949Z" fill="#373737"/>
<path d="M25.7838 13.6949H18.6888V14.9235H25.7838V13.6949Z" fill="#373737"/>
<path d="M6.72376 5.87062L5.85706 6.73932L10.7227 11.6162L11.5894 10.7475L6.72376 5.87062Z" fill="#373737"/>
<path d="M17.8293 17.002L16.9626 17.8707L21.9241 22.8435L22.7908 21.9748L17.8293 17.002Z" fill="#373737"/>
<path d="M21.8289 5.8705L16.9633 10.7474L17.83 11.6161L22.6956 6.7392L21.8289 5.8705Z" fill="#373737"/>
<path d="M10.7228 17.0024L5.85718 21.8793L6.72388 22.748L11.5895 17.8711L10.7228 17.0024Z" fill="#373737"/>
<path d="M14.2764 1.0412C6.96569 1.0412 1.03882 6.98173 1.03882 14.3093C1.03882 21.6368 6.96569 27.5773 14.2764 27.5773C21.5871 27.5773 27.5139 21.6368 27.5139 14.3093C27.5139 6.98173 21.5871 1.0412 14.2764 1.0412ZM14.2764 24.8132C8.48863 24.8132 3.79664 20.1104 3.79664 14.3093C3.79664 8.50817 8.48863 3.80538 14.2764 3.80538C20.0641 3.80538 24.7561 8.50817 24.7561 14.3093C24.7561 20.1104 20.0641 24.8132 14.2764 24.8132Z" fill="#373737"/>
<path d="M23.9287 29.2358H4.62391C3.86236 29.2358 3.245 29.8546 3.245 30.6179C3.245 31.3812 3.86236 32 4.62391 32H23.9287C24.6902 32 25.3076 31.3812 25.3076 30.6179C25.3076 29.8546 24.6902 29.2358 23.9287 29.2358Z" fill="#FFD527"/>
<path d="M18.6888 12.4775V16.141L16.1038 18.7319H15.6552V29.2358H12.8974V18.7319H12.4488L9.86377 16.141V12.4775L12.4328 9.90253V13.9818C12.4328 15.0021 13.2583 15.8295 14.2763 15.8295C15.2942 15.8295 16.1197 15.0021 16.1197 13.9818V9.90253L18.6888 12.4775Z" fill="#FFD527"/>
</g>
<defs>
<clipPath id="clip0_1718_198">
<rect width="28.5527" height="32" fill="white"/>
</clipPath>
</defs>
</svg>
