<svg width="64" height="64" viewBox="0 0 64 64" fill="none" xmlns="http://www.w3.org/2000/svg">
<rect x="1" y="1" width="62" height="62" rx="31" fill="#FFD12E" fill-opacity="0.2"/>
<rect x="1" y="1" width="62" height="62" rx="31" stroke="#DBB11C" stroke-width="2"/>
<path d="M30.6607 35.7355C32.001 34.8433 33.0185 33.5434 33.5628 32.0281C34.1072 30.5128 34.1494 28.8626 33.6833 27.3214C33.2173 25.7803 32.2676 24.43 30.9747 23.4703C29.6819 22.5106 28.1146 21.9925 26.5045 21.9925C24.8944 21.9925 23.327 22.5106 22.0342 23.4703C20.7413 24.43 19.7917 25.7803 19.3256 27.3214C18.8595 28.8626 18.9017 30.5128 19.4461 32.0281C19.9904 33.5434 21.008 34.8433 22.3482 35.7355C19.9238 36.6291 17.8533 38.2826 16.4457 40.4493C16.3717 40.5592 16.3203 40.6828 16.2945 40.8128C16.2687 40.9428 16.269 41.0766 16.2954 41.2065C16.3218 41.3364 16.3737 41.4597 16.4481 41.5693C16.5226 41.679 16.6181 41.7727 16.7291 41.8451C16.8401 41.9175 16.9644 41.9671 17.0947 41.9911C17.2251 42.015 17.3589 42.0128 17.4884 41.9846C17.6178 41.9564 17.7404 41.9027 17.849 41.8267C17.9575 41.7506 18.0499 41.6538 18.1207 41.5418C19.0287 40.1453 20.2712 38.9977 21.7353 38.2033C23.1994 37.4088 24.8387 36.9927 26.5045 36.9927C28.1702 36.9927 29.8096 37.4088 31.2737 38.2033C32.7378 38.9977 33.9802 40.1453 34.8882 41.5418C35.0349 41.7598 35.2614 41.9113 35.5189 41.9636C35.7764 42.0158 36.0441 41.9647 36.2642 41.8211C36.4843 41.6776 36.639 41.4532 36.695 41.1965C36.7509 40.9398 36.7036 40.6714 36.5632 40.4493C35.1556 38.2826 33.0851 36.6291 30.6607 35.7355ZM21.0045 29.4955C21.0045 28.4077 21.327 27.3444 21.9314 26.4399C22.5357 25.5354 23.3947 24.8305 24.3997 24.4142C25.4047 23.9979 26.5106 23.889 27.5775 24.1012C28.6443 24.3134 29.6244 24.8373 30.3935 25.6064C31.1627 26.3756 31.6866 27.3556 31.8988 28.4225C32.111 29.4894 32.0021 30.5953 31.5858 31.6003C31.1695 32.6053 30.4646 33.4643 29.5601 34.0686C28.6556 34.673 27.5923 34.9955 26.5045 34.9955C25.0463 34.9939 23.6483 34.4139 22.6172 33.3828C21.5861 32.3517 21.0061 30.9537 21.0045 29.4955ZM47.272 41.833C47.0498 41.9779 46.7793 42.0286 46.5198 41.974C46.2603 41.9193 46.0331 41.7639 45.8882 41.5418C44.9813 40.1444 43.739 38.9964 42.2746 38.2023C40.8102 37.4082 39.1703 36.9933 37.5045 36.9955C37.2392 36.9955 36.9849 36.8902 36.7973 36.7026C36.6098 36.5151 36.5045 36.2608 36.5045 35.9955C36.5045 35.7303 36.6098 35.476 36.7973 35.2884C36.9849 35.1009 37.2392 34.9955 37.5045 34.9955C38.3144 34.9948 39.1142 34.8151 39.8467 34.4694C40.5792 34.1237 41.2263 33.6205 41.7417 32.9958C42.2572 32.371 42.6283 31.6401 42.8285 30.8553C43.0288 30.0704 43.0532 29.2511 42.9001 28.4557C42.747 27.6604 42.42 26.9086 41.9427 26.2543C41.4654 25.5999 40.8494 25.059 40.1388 24.6703C39.4283 24.2816 38.6406 24.0546 37.8321 24.0056C37.0236 23.9566 36.2143 24.0868 35.462 24.3868C35.3393 24.4398 35.2072 24.4677 35.0736 24.4688C34.94 24.47 34.8075 24.4443 34.6839 24.3934C34.5604 24.3424 34.4483 24.2672 34.3543 24.1722C34.2603 24.0772 34.1863 23.9644 34.1367 23.8403C34.087 23.7162 34.0628 23.5834 34.0653 23.4498C34.0679 23.3162 34.0972 23.1844 34.1515 23.0624C34.2058 22.9403 34.2841 22.8303 34.3816 22.7389C34.4792 22.6476 34.5941 22.5767 34.7195 22.5305C36.4413 21.8438 38.3564 21.8191 40.0954 22.4612C41.8344 23.1032 43.274 24.3665 44.1365 26.0073C44.999 27.6481 45.2233 29.5502 44.7661 31.3467C44.3089 33.1431 43.2026 34.7066 41.6607 35.7355C44.0851 36.6291 46.1556 38.2826 47.5632 40.4493C47.7081 40.6714 47.7587 40.942 47.7041 41.2015C47.6495 41.461 47.4941 41.6881 47.272 41.833Z" fill="#DBB11C"/>
</svg>
